<svg xmlns="http://www.w3.org/2000/svg" version="1.1" xmlns:xlink="http://www.w3.org/1999/xlink" viewBox="0 0 800 800">
          <defs>
            <linearGradient x1="50%" y1="0%" x2="50%" y2="100%" id="nnneon-grad">
              <stop stop-color="hsl(186, 100%, 54%)" stop-opacity="1" offset="0%"></stop>
              <stop stop-color="hsl(199, 87%, 61%)" stop-opacity="1" offset="100%"></stop>
            </linearGradient>
            <filter id="nnneon-filter" x="-100%" y="-100%" width="400%" height="400%" filterUnits="objectBoundingBox" primitiveUnits="userSpaceOnUse" color-interpolation-filters="sRGB">
              <feGaussianBlur stdDeviation="17 9" x="0%" y="0%" width="100%" height="100%" in="SourceGraphic" result="blur"></feGaussianBlur>
            </filter>
            <filter id="nnneon-filter2" x="-100%" y="-100%" width="400%" height="400%" filterUnits="objectBoundingBox" primitiveUnits="userSpaceOnUse" color-interpolation-filters="sRGB">
              <feGaussianBlur stdDeviation="12 37" x="0%" y="0%" width="100%" height="100%" in="SourceGraphic" result="blur"></feGaussianBlur>
            </filter>
          </defs>
          <g stroke-width="16" stroke="url(#nnneon-grad)" fill="none">
            <path d="M381.17778514635256 149.23592283690752C388.8889508883026 133.65399206205214 411.1110521631705 133.65399206205214 418.8222179051206 149.23592283690752L657.7948562321045 632.1371774731747C664.7017255472662 646.0937154690896 654.546170664894 662.4505428013468 638.974739843391 662.4505428013468H161.02526320808204C145.45383238657894 662.4505428013468 135.29827750420696 646.0937154690896 142.20514681936857 632.1371774731747L381.17778514635256 149.23592283690752Z " filter="url(#nnneon-filter)"></path>
            <path d="M430.17778514635256 149.23592283690752C437.8889508883026 133.65399206205214 460.1110521631705 133.65399206205214 467.8222179051206 149.23592283690752L706.7948562321045 632.1371774731747C713.7017255472662 646.0937154690896 703.546170664894 662.4505428013468 687.974739843391 662.4505428013468H210.02526320808204C194.45383238657894 662.4505428013468 184.29827750420696 646.0937154690896 191.20514681936857 632.1371774731747L430.17778514635256 149.23592283690752Z " filter="url(#nnneon-filter2)" opacity="0.35"></path>
            <path d="M332.17778514635256 149.23592283690752C339.8889508883026 133.65399206205214 362.1110521631705 133.65399206205214 369.8222179051206 149.23592283690752L608.7948562321045 632.1371774731747C615.7017255472662 646.0937154690896 605.546170664894 662.4505428013468 589.974739843391 662.4505428013468H112.02526320808204C96.45383238657894 662.4505428013468 86.29827750420696 646.0937154690896 93.20514681936857 632.1371774731747L332.17778514635256 149.23592283690752Z " filter="url(#nnneon-filter2)" opacity="0.35"></path>
            <path d="M381.17778514635256 149.23592283690752C388.8889508883026 133.65399206205214 411.1110521631705 133.65399206205214 418.8222179051206 149.23592283690752L657.7948562321045 632.1371774731747C664.7017255472662 646.0937154690896 654.546170664894 662.4505428013468 638.974739843391 662.4505428013468H161.02526320808204C145.45383238657894 662.4505428013468 135.29827750420696 646.0937154690896 142.20514681936857 632.1371774731747L381.17778514635256 149.23592283690752Z "></path>
          </g>
        </svg>